# This file uses meters as units for non-parametric coordinates.

mtllib Church_Houses.mtl
g default
v 0.000015 0.000000 -76.405640
v -147.736191 476.571533 -76.405640
v 0.000015 476.571533 -76.405640
v -147.736191 476.571533 -224.141846
v 0.000015 476.571533 -224.141846
v 0.000015 0.000000 -224.141846
v -73.868088 664.228638 -150.273682
v -147.736191 253.735352 -76.405640
v -147.736191 253.735352 -224.141846
v 0.000015 253.735352 -224.141846
v 0.000015 253.735352 -76.405640
v -147.736191 0.000000 0.000000
v 0.000015 0.000000 0.000000
v 0.000015 198.226776 0.000000
v -147.736191 198.226776 0.000000
v -147.736191 198.226776 -296.654419
v 0.000015 198.226776 -296.654419
v 0.000015 0.000000 -296.654419
v -147.736191 0.000000 -296.654419
v -502.413330 0.000000 -224.141846
v -502.413330 0.000000 -76.405640
v -502.413330 253.735352 -76.405640
v -502.413330 253.735352 -224.141846
v -502.413330 0.000000 0.000000
v -502.413330 198.226776 0.000000
v -502.413330 198.226776 -296.654419
v -502.413330 0.000000 -296.654419
v -147.736191 476.571533 -150.273804
v -147.736191 305.739990 -150.273804
v -502.413330 305.739990 -150.273804
v -502.413330 0.000000 -150.273804
v 0.000015 0.000000 -150.273804
v 0.000015 253.735352 -150.273804
v 0.000015 476.571533 -150.273804
v 0.000015 0.000000 -110.306152
v 1.612442 0.000000 -110.306152
v 0.000015 0.000000 -190.241455
v 1.612442 0.000000 -190.241455
v 0.000015 100.000000 -142.277039
v 0.000015 60.003998 -110.306152
v 0.000015 88.285431 -119.670288
v 1.612442 100.000000 -142.277039
v 1.612442 88.285431 -119.670288
v 1.612442 60.003998 -110.306152
v 0.000015 60.003998 -190.241455
v 0.000015 100.000000 -158.270569
v 0.000015 88.285431 -180.877319
v 1.612442 60.003998 -190.241455
v 1.612442 88.285431 -180.877319
v 1.612442 100.000000 -158.270569
vt 0.786272 0.134643
vt 0.832440 0.134652
vt 0.832428 0.196598
vt 0.786261 0.196589
vt 0.651253 0.287610
vt 0.535827 0.350619
vt 0.605085 0.287605
vt 0.628169 0.287607
vt 0.786239 0.311101
vt 0.439641 0.416771
vt 0.439648 0.354825
vt 0.786228 0.373047
vt 0.393904 0.354820
vt 0.370820 0.354817
vt 0.535842 0.217960
vt 0.370811 0.434109
vt 0.628457 0.230158
vt 0.628475 0.134615
vt 0.651558 0.134619
vt 0.651544 0.213911
vt 0.558918 0.287599
vt 0.512750 0.287594
vt 0.535834 0.287596
vt 0.786250 0.254333
vt 0.786255 0.226102
vt 0.416978 0.434115
vt 0.786245 0.282563
vt 0.675435 0.134623
vt 0.675424 0.196569
vt 0.416987 0.354822
vt 0.605391 0.134610
vt 0.605377 0.213903
vt 0.675403 0.311080
vt 0.675391 0.373026
vt 0.449239 0.335915
vt 0.449743 0.335892
vt 0.449942 0.354406
vt 0.449443 0.354469
vt 0.459688 0.367473
vt 0.459797 0.366988
vt 0.464711 0.367070
vt 0.464827 0.367559
vt 0.475098 0.354902
vt 0.474603 0.354818
vt 0.475169 0.335821
vt 0.475674 0.335857
vt 0.452260 0.363897
vt 0.452454 0.363426
vt 0.472163 0.363778
vt 0.471680 0.363624
vt 0.471893 0.364082
vt 0.451962 0.363543
vt 0.628175 0.234222
vt 0.605093 0.217968
vt 0.832407 0.311109
vt 0.832396 0.373055
vt 0.832412 0.282572
vt 0.346943 0.354814
vt 0.346936 0.416760
vt 0.832423 0.226110
vt 0.651261 0.217974
vt 0.466591 0.217952
vt 0.466583 0.287589
vt 0.489659 0.350614
vt 0.628162 0.350630
vt 0.581994 0.350624
vt 0.675413 0.254312
vt 0.675408 0.282543
vt 0.582720 0.196552
vt 0.582731 0.134606
vt 0.675418 0.226081
vt 0.393895 0.434112
vt 0.512758 0.217958
vt 0.558926 0.217963
vn 0.000000 0.000000 1.000000
vn 0.000000 0.000000 1.000000
vn 0.000000 0.000000 1.000000
vn 0.000000 0.000000 1.000000
vn -0.930506 0.366278 0.000000
vn -0.930506 0.366278 0.000000
vn -0.930506 0.366278 0.000000
vn -0.930506 0.366278 0.000000
vn 0.000000 0.000000 -1.000000
vn 0.000000 0.000000 -1.000000
vn 0.000000 0.000000 -1.000000
vn 0.000000 0.000000 -1.000000
vn 1.000000 0.000000 0.000000
vn 1.000000 0.000000 0.000000
vn 1.000000 0.000000 0.000000
vn 1.000000 0.000000 0.000000
vn -1.000000 0.000000 0.000000
vn -1.000000 0.000000 0.000000
vn -1.000000 0.000000 0.000000
vn -1.000000 0.000000 0.000000
vn 0.000000 0.366278 -0.930505
vn 0.000000 0.366278 -0.930505
vn 0.000000 0.366278 -0.930505
vn 0.000000 0.366278 0.930506
vn 0.000000 0.366278 0.930506
vn 0.000000 0.366278 0.930506
vn 0.930506 0.366278 0.000000
vn 0.930506 0.366278 0.000000
vn 0.930506 0.366278 0.000000
vn 0.930506 0.366278 0.000000
vn -1.000000 0.000000 0.000000
vn -1.000000 0.000000 0.000000
vn -1.000000 0.000000 0.000000
vn -1.000000 0.000000 0.000000
vn 0.000000 0.000000 -1.000000
vn 0.000000 0.000000 -1.000000
vn 0.000000 0.000000 -1.000000
vn 0.000000 0.000000 -1.000000
vn 1.000000 0.000000 0.000000
vn 1.000000 0.000000 0.000000
vn 1.000000 0.000000 0.000000
vn 1.000000 0.000000 0.000000
vn 0.000000 0.000000 1.000000
vn 0.000000 0.000000 1.000000
vn 0.000000 0.000000 1.000000
vn 0.000000 0.000000 1.000000
vn 1.000000 0.000000 0.000000
vn 1.000000 0.000000 0.000000
vn 1.000000 0.000000 0.000000
vn 1.000000 0.000000 0.000000
vn 0.000000 0.809034 0.587762
vn 0.000000 0.809034 0.587762
vn 0.000000 0.809034 0.587762
vn 0.000000 0.809034 0.587762
vn -1.000000 0.000000 0.000000
vn -1.000000 0.000000 0.000000
vn -1.000000 0.000000 0.000000
vn -1.000000 0.000000 0.000000
vn 0.000000 0.794052 -0.607849
vn 0.000000 0.794052 -0.607849
vn 0.000000 0.794052 -0.607849
vn 0.000000 0.794052 -0.607849
vn 1.000000 0.000000 0.000000
vn 1.000000 0.000000 0.000000
vn 1.000000 0.000000 0.000000
vn 1.000000 0.000000 0.000000
vn -1.000000 0.000000 0.000000
vn -1.000000 0.000000 0.000000
vn -1.000000 0.000000 0.000000
vn -1.000000 0.000000 0.000000
vn 0.000000 0.817685 0.575666
vn 0.000000 0.817685 0.575666
vn 0.000000 0.817685 0.575666
vn 0.000000 0.817685 0.575666
vn 0.000000 0.000000 1.000000
vn 0.000000 0.000000 1.000000
vn 0.000000 0.000000 1.000000
vn 0.000000 0.000000 1.000000
vn 0.000000 0.809034 0.587762
vn 0.000000 0.809034 0.587762
vn 0.000000 0.809034 0.587762
vn 0.000000 0.809034 0.587762
vn 0.000000 0.794052 -0.607849
vn 0.000000 0.794052 -0.607849
vn 0.000000 0.794052 -0.607849
vn 0.000000 0.794052 -0.607849
vn 0.000000 0.000000 -1.000000
vn 0.000000 0.000000 -1.000000
vn 0.000000 0.000000 -1.000000
vn 0.000000 0.000000 -1.000000
vn -1.000000 0.000000 0.000000
vn -1.000000 0.000000 0.000000
vn -1.000000 0.000000 0.000000
vn -1.000000 0.000000 0.000000
vn 0.000000 0.817684 -0.575667
vn 0.000000 0.817684 -0.575667
vn 0.000000 0.817684 -0.575667
vn 0.000000 0.817684 -0.575667
vn -1.000000 0.000000 0.000000
vn -1.000000 0.000000 0.000000
vn -1.000000 0.000000 0.000000
vn -1.000000 0.000000 0.000000
vn 1.000000 0.000000 0.000000
vn 1.000000 0.000000 0.000000
vn 1.000000 0.000000 0.000000
vn 1.000000 0.000000 0.000000
vn 1.000000 0.000000 0.000000
vn 1.000000 0.000000 0.000000
vn 1.000000 0.000000 0.000000
vn 1.000000 0.000000 0.000000
vn 0.000000 0.000000 1.000000
vn 0.000000 0.000000 1.000000
vn 0.000000 0.105475 0.994422
vn 0.000000 0.105475 0.994422
vn 0.000000 0.956904 0.290405
vn 0.000000 0.956904 0.290405
vn 0.000000 0.956904 -0.290405
vn 0.000000 0.956904 -0.290405
vn 0.000000 0.105475 -0.994422
vn 0.000000 0.105475 -0.994422
vn 0.000000 0.000000 -1.000000
vn 0.000000 0.000000 -1.000000
vn 0.000000 0.887874 0.460087
vn 0.000000 0.887874 0.460087
vn 0.000000 0.314324 0.949316
vn 0.000000 0.314324 0.949316
vn 0.000000 0.314324 -0.949316
vn 0.000000 0.314324 -0.949316
vn 0.000000 0.887874 -0.460087
vn 0.000000 0.887874 -0.460087
vn 1.000000 -0.000000 0.000000
vn 1.000000 -0.000000 0.000000
vn 1.000000 -0.000000 0.000000
vn 1.000000 -0.000000 0.000000
vn 1.000000 -0.000000 0.000000
vn 1.000000 -0.000000 0.000000
vn 1.000000 -0.000000 0.000000
vn 1.000000 -0.000000 0.000000
s off
g Church
usemtl initialShadingGroup
f 12/1/1 13/2/2 14/3/3 15/4/4
f 2/5/5 7/65/6 4/7/7 28/8/8
f 16/9/9 17/55/10 18/56/11 19/12/12
f 1/14/13 32/13/14 33/72/15 11/16/16
f 30/17/17 31/18/18 21/19/19 22/20/20
f 4/7/21 7/66/22 5/21/23
f 2/63/24 3/22/25 7/64/26
f 5/21/27 7/6/28 3/22/29 34/23/30
f 28/8/31 29/53/32 8/61/33 2/5/34
f 4/7/35 5/21/36 10/74/37 9/54/38
f 11/73/39 33/15/40 34/23/41 3/22/42
f 8/62/43 11/73/44 3/22/45 2/63/46
f 1/14/47 11/16/48 14/59/49 13/58/50
f 11/60/51 8/25/52 15/4/53 14/3/54
f 22/20/55 21/19/56 24/28/57 25/29/58
f 9/27/59 10/57/60 17/55/61 16/9/62
f 10/26/63 6/30/64 18/11/65 17/10/66
f 20/31/67 23/32/68 26/69/69 27/70/70
f 8/25/71 29/24/72 30/67/73 22/71/74
f 12/1/75 15/4/76 25/29/77 24/28/78
f 15/4/79 8/25/80 22/71/81 25/29/82
f 9/27/83 16/9/84 26/33/85 23/68/86
f 16/9/87 19/12/88 27/34/89 26/33/90
f 9/54/91 29/53/92 28/8/93 4/7/94
f 30/67/95 29/24/96 9/27/97 23/68/98
f 20/31/99 31/18/100 30/17/101 23/32/102
f 33/72/103 32/13/104 6/30/105 10/26/106
f 34/23/107 33/15/108 10/74/109 5/21/110
s 1
f 35/35/111 36/36/112 44/37/113 40/38/114
s 2
f 39/39/115 42/40/116 50/41/117 46/42/118
s 3
f 45/43/119 48/44/120 38/45/121 37/46/122
s 2
f 39/39/115 41/47/123 43/48/124 42/40/116
s 1
f 41/52/125 40/38/114 44/37/113 43/48/126
s 3
f 45/43/119 47/49/127 49/50/128 48/44/120
s 2
f 47/51/129 46/42/118 50/41/117 49/50/130
s off
f 42/40/131 43/48/132 44/37/133 36/36/134 38/45/135 48/44/136 49/50/137 50/41/138
g default
v -200.000000 0.000000 -321.270508
v -202.424805 0.000000 -321.270508
v -200.000000 94.749023 -321.270508
v -202.424805 94.749023 -321.270508
v -200.000000 94.749023 -278.729492
v -202.424805 94.749023 -278.729492
v -200.000000 0.000000 -278.729492
v -202.424805 0.000000 -278.729492
v -200.000000 0.000000 -121.270500
v -202.424805 0.000000 -121.270500
v -200.000000 94.749023 -121.270500
v -202.424805 94.749023 -121.270500
v -200.000000 94.749023 -78.729500
v -202.424805 94.749023 -78.729500
v -200.000000 0.000000 -78.729500
v -202.424805 0.000000 -78.729500
v -200.000000 0.000000 0.000000
v 0.000000 0.000000 0.000000
v -200.000000 400.000000 -100.000000
v 0.000000 400.000000 -100.000000
v -200.000000 400.000000 -300.000000
v 0.000000 400.000000 -300.000000
v -200.000000 0.000000 -400.000000
v 0.000000 0.000000 -400.000000
v -200.000000 300.000000 0.000000
v -200.000000 300.000000 -400.000000
v 0.000000 300.000000 -400.000000
v 0.000000 300.000000 0.000000
v -200.000000 300.000000 -200.000000
v -200.000000 0.000000 -200.000000
v 0.000000 0.000000 -200.000000
v 0.000000 300.000000 -200.000000
v -200.000000 206.928345 -279.609802
v -201.379272 206.928345 -279.609802
v -200.000000 253.108398 -279.609802
v -201.379272 253.108398 -279.609802
v -200.000000 253.108398 -246.346664
v -201.379272 253.108398 -246.346664
v -200.000000 206.928345 -246.346664
v -201.379272 206.928345 -246.346664
v -200.000000 121.061523 -352.808044
v -201.379272 121.061523 -352.808044
v -200.000000 167.241577 -352.808044
v -201.379272 167.241577 -352.808044
v -200.000000 167.241577 -319.544922
v -201.379272 167.241577 -319.544922
v -200.000000 121.061523 -319.544922
v -201.379272 121.061523 -319.544922
v -200.000000 206.928345 -352.808044
v -201.379272 206.928345 -352.808044
v -200.000000 253.108398 -352.808044
v -201.379272 253.108398 -352.808044
v -200.000000 253.108398 -319.544922
v -201.379272 253.108398 -319.544922
v -200.000000 206.928345 -319.544922
v -201.379272 206.928345 -319.544922
v -200.000000 121.061523 -279.609802
v -201.379272 121.061523 -279.609802
v -200.000000 167.241577 -279.609802
v -201.379272 167.241577 -279.609802
v -200.000000 167.241577 -246.346664
v -201.379272 167.241577 -246.346664
v -200.000000 121.061523 -246.346664
v -201.379272 121.061523 -246.346664
v -200.000000 121.061523 -80.887810
v -201.379272 121.061523 -80.887810
v -200.000000 167.241577 -80.887810
v -201.379272 167.241577 -80.887810
v -200.000000 167.241577 -47.624672
v -201.379272 167.241577 -47.624672
v -200.000000 121.061523 -47.624672
v -201.379272 121.061523 -47.624672
v -200.000000 121.061523 -154.086075
v -201.379272 121.061523 -154.086075
v -200.000000 167.241577 -154.086075
v -201.379272 167.241577 -154.086075
v -200.000000 167.241577 -120.822929
v -201.379272 167.241577 -120.822929
v -200.000000 121.061523 -120.822929
v -201.379272 121.061523 -120.822929
v -200.000000 206.928345 -154.086075
v -201.379272 206.928345 -154.086075
v -200.000000 253.108398 -154.086075
v -201.379272 253.108398 -154.086075
v -200.000000 253.108398 -120.822929
v -201.379272 253.108398 -120.822929
v -200.000000 206.928345 -120.822929
v -201.379272 206.928345 -120.822929
v -200.000000 206.928345 -80.887810
v -201.379272 206.928345 -80.887810
v -200.000000 253.108398 -80.887810
v -201.379272 253.108398 -80.887810
v -200.000000 253.108398 -47.624672
v -201.379272 253.108398 -47.624672
v -200.000000 206.928345 -47.624672
v -201.379272 206.928345 -47.624672
vt 0.459026 0.078810
vt 0.460541 0.078809
vt 0.460544 0.138028
vt 0.460545 0.139543
vt 0.487133 0.138026
vt 0.488648 0.138026
vt 0.487129 0.078808
vt 0.459028 0.078807
vt 0.460544 0.078807
vt 0.460541 0.138027
vt 0.460540 0.139543
vt 0.487130 0.138029
vt 0.488645 0.138029
vt 0.487133 0.078808
vt 0.872507 0.116769
vt 0.872496 0.059536
vt 0.958344 0.059521
vt 0.958355 0.116753
vt 0.885304 0.392784
vt 0.947054 0.392778
vt 0.947058 0.436442
vt 0.885308 0.436448
vt 0.958376 0.231217
vt 0.947067 0.523769
vt 0.872538 0.288465
vt 0.872528 0.231233
vt 0.872517 0.174001
vt 0.872485 0.002304
vt 0.885313 0.480112
vt 0.947063 0.480106
vt 0.494340 0.093988
vt 0.495203 0.093988
vt 0.495208 0.122852
vt 0.495208 0.123714
vt 0.515998 0.122848
vt 0.516860 0.122847
vt 0.515993 0.093984
vt 0.515993 0.093122
vt 0.494342 0.093989
vt 0.495204 0.093989
vt 0.495208 0.122850
vt 0.495208 0.123712
vt 0.515997 0.122847
vt 0.516859 0.122847
vt 0.515993 0.093985
vt 0.515992 0.093123
vt 0.494347 0.093985
vt 0.495209 0.093986
vt 0.495204 0.122846
vt 0.495203 0.123708
vt 0.515992 0.122850
vt 0.516854 0.122850
vt 0.515997 0.093989
vt 0.515997 0.093127
vt 0.494345 0.093983
vt 0.495207 0.093984
vt 0.495202 0.122849
vt 0.495202 0.123711
vt 0.515994 0.122852
vt 0.516856 0.122852
vt 0.515998 0.093987
vt 0.515999 0.093125
vt 0.494342 0.093985
vt 0.495204 0.093985
vt 0.495205 0.122851
vt 0.495205 0.123713
vt 0.515997 0.122851
vt 0.516859 0.122851
vt 0.515996 0.093985
vt 0.515996 0.093123
vt 0.494341 0.093984
vt 0.495204 0.093984
vt 0.495204 0.122852
vt 0.495204 0.123714
vt 0.515997 0.122851
vt 0.516859 0.122851
vt 0.515997 0.093984
vt 0.515997 0.093122
vt 0.494345 0.093986
vt 0.495207 0.093986
vt 0.495205 0.122848
vt 0.495205 0.123710
vt 0.515994 0.122849
vt 0.516856 0.122850
vt 0.515996 0.093988
vt 0.515996 0.093126
vt 0.494344 0.093985
vt 0.495206 0.093985
vt 0.495205 0.122849
vt 0.495205 0.123711
vt 0.515995 0.122850
vt 0.516857 0.122850
vt 0.515996 0.093986
vt 0.515996 0.093124
vt 0.990726 0.480101
vt 0.958397 0.345681
vt 0.990718 0.392774
vt 0.958365 0.173985
vt 0.841649 0.480116
vt 0.841640 0.392788
vt 0.947050 0.349114
vt 0.885300 0.349120
vt 0.885317 0.523776
vt 0.958387 0.288449
vt 0.516858 0.093986
vt 0.515995 0.123712
vt 0.494342 0.122849
vt 0.495206 0.093123
vt 0.516858 0.093988
vt 0.515994 0.123711
vt 0.494343 0.122848
vt 0.495207 0.093124
vt 0.516859 0.093984
vt 0.515997 0.123713
vt 0.494342 0.122852
vt 0.495204 0.093122
vt 0.516858 0.093985
vt 0.515997 0.123713
vt 0.494342 0.122851
vt 0.495204 0.093123
vt 0.516861 0.093987
vt 0.515994 0.123714
vt 0.494340 0.122849
vt 0.495207 0.093121
vt 0.516859 0.093990
vt 0.515992 0.123712
vt 0.494342 0.122846
vt 0.495209 0.093124
vt 0.516855 0.093985
vt 0.515997 0.123709
vt 0.494346 0.122851
vt 0.495203 0.093127
vt 0.516855 0.093984
vt 0.515998 0.123710
vt 0.494346 0.122852
vt 0.495202 0.093126
vt 0.488649 0.078808
vt 0.487130 0.139544
vt 0.459025 0.138027
vt 0.488645 0.078808
vt 0.487133 0.139542
vt 0.459029 0.138028
vt 0.872549 0.345697
vt 0.958334 0.002288
vn 0.000000 0.000000 -1.000000
vn 0.000000 0.000000 -1.000000
vn 0.000000 0.000000 -1.000000
vn 0.000000 0.000000 -1.000000
vn 0.000000 1.000000 0.000000
vn 0.000000 1.000000 0.000000
vn 0.000000 1.000000 0.000000
vn 0.000000 1.000000 0.000000
vn 0.000000 0.000000 1.000000
vn 0.000000 0.000000 1.000000
vn 0.000000 0.000000 1.000000
vn 0.000000 0.000000 1.000000
vn -1.000000 0.000000 0.000000
vn -1.000000 0.000000 0.000000
vn -1.000000 0.000000 0.000000
vn -1.000000 0.000000 0.000000
vn 0.000000 0.000000 -1.000000
vn 0.000000 0.000000 -1.000000
vn 0.000000 0.000000 -1.000000
vn 0.000000 0.000000 -1.000000
vn 0.000000 1.000000 0.000000
vn 0.000000 1.000000 0.000000
vn 0.000000 1.000000 0.000000
vn 0.000000 1.000000 0.000000
vn 0.000000 0.000000 1.000000
vn 0.000000 0.000000 1.000000
vn 0.000000 0.000000 1.000000
vn 0.000000 0.000000 1.000000
vn -1.000000 0.000000 0.000000
vn -1.000000 0.000000 0.000000
vn -1.000000 0.000000 0.000000
vn -1.000000 0.000000 0.000000
vn 0.000000 0.000000 1.000000
vn 0.000000 0.000000 1.000000
vn 0.000000 0.000000 1.000000
vn 0.000000 0.000000 1.000000
vn 0.000000 0.707107 -0.707107
vn 0.000000 0.707107 -0.707107
vn 0.000000 0.707107 -0.707107
vn 0.000000 0.707107 -0.707107
vn 0.000000 0.000000 -1.000000
vn 0.000000 0.000000 -1.000000
vn 0.000000 0.000000 -1.000000
vn 0.000000 0.000000 -1.000000
vn 1.000000 0.000000 0.000000
vn 1.000000 0.000000 0.000000
vn 1.000000 0.000000 0.000000
vn 1.000000 0.000000 0.000000
vn -1.000000 0.000000 0.000000
vn -1.000000 0.000000 0.000000
vn -1.000000 0.000000 0.000000
vn -1.000000 0.000000 0.000000
vn -1.000000 0.000000 0.000000
vn -1.000000 0.000000 0.000000
vn -1.000000 0.000000 0.000000
vn 0.000000 0.707107 -0.707107
vn 0.000000 0.707107 -0.707107
vn 0.000000 0.707107 -0.707107
vn 0.000000 0.707107 -0.707107
vn 1.000000 0.000000 0.000000
vn 1.000000 0.000000 0.000000
vn 1.000000 0.000000 0.000000
vn 0.000000 0.707107 0.707107
vn 0.000000 0.707107 0.707107
vn 0.000000 0.707107 0.707107
vn 0.000000 0.707107 0.707107
vn -1.000000 0.000000 0.000000
vn -1.000000 0.000000 0.000000
vn -1.000000 0.000000 0.000000
vn -1.000000 0.000000 0.000000
vn -1.000000 0.000000 0.000000
vn -1.000000 0.000000 0.000000
vn -1.000000 0.000000 0.000000
vn 1.000000 0.000000 0.000000
vn 1.000000 0.000000 0.000000
vn 1.000000 0.000000 0.000000
vn 1.000000 0.000000 0.000000
vn 1.000000 0.000000 0.000000
vn 1.000000 0.000000 0.000000
vn 1.000000 0.000000 0.000000
vn 0.000000 0.707107 0.707107
vn 0.000000 0.707107 0.707107
vn 0.000000 0.707107 0.707107
vn 0.000000 0.707107 0.707107
vn 0.000000 0.000000 -1.000000
vn 0.000000 0.000000 -1.000000
vn 0.000000 0.000000 -1.000000
vn 0.000000 0.000000 -1.000000
vn 0.000000 1.000000 0.000000
vn 0.000000 1.000000 0.000000
vn 0.000000 1.000000 0.000000
vn 0.000000 1.000000 0.000000
vn 0.000000 0.000000 1.000000
vn 0.000000 0.000000 1.000000
vn 0.000000 0.000000 1.000000
vn 0.000000 0.000000 1.000000
vn 0.000000 -1.000000 0.000000
vn 0.000000 -1.000000 0.000000
vn 0.000000 -1.000000 0.000000
vn 0.000000 -1.000000 0.000000
vn -1.000000 0.000000 0.000000
vn -1.000000 0.000000 0.000000
vn -1.000000 0.000000 0.000000
vn -1.000000 0.000000 0.000000
vn 0.000000 0.000000 -1.000000
vn 0.000000 0.000000 -1.000000
vn 0.000000 0.000000 -1.000000
vn 0.000000 0.000000 -1.000000
vn 0.000000 1.000000 0.000000
vn 0.000000 1.000000 0.000000
vn 0.000000 1.000000 0.000000
vn 0.000000 1.000000 0.000000
vn 0.000000 0.000000 1.000000
vn 0.000000 0.000000 1.000000
vn 0.000000 0.000000 1.000000
vn 0.000000 0.000000 1.000000
vn 0.000000 -1.000000 0.000000
vn 0.000000 -1.000000 0.000000
vn 0.000000 -1.000000 0.000000
vn 0.000000 -1.000000 0.000000
vn -1.000000 0.000000 0.000000
vn -1.000000 0.000000 0.000000
vn -1.000000 0.000000 0.000000
vn -1.000000 0.000000 0.000000
vn 0.000000 0.000000 -1.000000
vn 0.000000 0.000000 -1.000000
vn 0.000000 0.000000 -1.000000
vn 0.000000 0.000000 -1.000000
vn 0.000000 1.000000 0.000000
vn 0.000000 1.000000 0.000000
vn 0.000000 1.000000 0.000000
vn 0.000000 1.000000 0.000000
vn 0.000000 0.000000 1.000000
vn 0.000000 0.000000 1.000000
vn 0.000000 0.000000 1.000000
vn 0.000000 0.000000 1.000000
vn 0.000000 -1.000000 0.000000
vn 0.000000 -1.000000 0.000000
vn 0.000000 -1.000000 0.000000
vn 0.000000 -1.000000 0.000000
vn -1.000000 0.000000 0.000000
vn -1.000000 0.000000 0.000000
vn -1.000000 0.000000 0.000000
vn -1.000000 0.000000 0.000000
vn 0.000000 0.000000 -1.000000
vn 0.000000 0.000000 -1.000000
vn 0.000000 0.000000 -1.000000
vn 0.000000 0.000000 -1.000000
vn 0.000000 1.000000 0.000000
vn 0.000000 1.000000 0.000000
vn 0.000000 1.000000 0.000000
vn 0.000000 1.000000 0.000000
vn 0.000000 0.000000 1.000000
vn 0.000000 0.000000 1.000000
vn 0.000000 0.000000 1.000000
vn 0.000000 0.000000 1.000000
vn 0.000000 -1.000000 0.000000
vn 0.000000 -1.000000 0.000000
vn 0.000000 -1.000000 0.000000
vn 0.000000 -1.000000 0.000000
vn -1.000000 0.000000 0.000000
vn -1.000000 0.000000 0.000000
vn -1.000000 0.000000 0.000000
vn -1.000000 0.000000 0.000000
vn 0.000000 0.000000 -1.000000
vn 0.000000 0.000000 -1.000000
vn 0.000000 0.000000 -1.000000
vn 0.000000 0.000000 -1.000000
vn 0.000000 1.000000 0.000000
vn 0.000000 1.000000 0.000000
vn 0.000000 1.000000 0.000000
vn 0.000000 1.000000 0.000000
vn 0.000000 0.000000 1.000000
vn 0.000000 0.000000 1.000000
vn 0.000000 0.000000 1.000000
vn 0.000000 0.000000 1.000000
vn 0.000000 -1.000000 0.000000
vn 0.000000 -1.000000 0.000000
vn 0.000000 -1.000000 0.000000
vn 0.000000 -1.000000 0.000000
vn -1.000000 0.000000 0.000000
vn -1.000000 0.000000 0.000000
vn -1.000000 0.000000 0.000000
vn -1.000000 0.000000 0.000000
vn 0.000000 0.000000 -1.000000
vn 0.000000 0.000000 -1.000000
vn 0.000000 0.000000 -1.000000
vn 0.000000 0.000000 -1.000000
vn 0.000000 1.000000 0.000000
vn 0.000000 1.000000 0.000000
vn 0.000000 1.000000 0.000000
vn 0.000000 1.000000 0.000000
vn 0.000000 0.000000 1.000000
vn 0.000000 0.000000 1.000000
vn 0.000000 0.000000 1.000000
vn 0.000000 0.000000 1.000000
vn 0.000000 -1.000000 0.000000
vn 0.000000 -1.000000 0.000000
vn 0.000000 -1.000000 0.000000
vn 0.000000 -1.000000 0.000000
vn -1.000000 0.000000 0.000000
vn -1.000000 0.000000 0.000000
vn -1.000000 0.000000 0.000000
vn -1.000000 0.000000 0.000000
vn 0.000000 0.000000 -1.000000
vn 0.000000 0.000000 -1.000000
vn 0.000000 0.000000 -1.000000
vn 0.000000 0.000000 -1.000000
vn 0.000000 1.000000 0.000000
vn 0.000000 1.000000 0.000000
vn 0.000000 1.000000 0.000000
vn 0.000000 1.000000 0.000000
vn 0.000000 0.000000 1.000000
vn 0.000000 0.000000 1.000000
vn 0.000000 0.000000 1.000000
vn 0.000000 0.000000 1.000000
vn 0.000000 -1.000000 0.000000
vn 0.000000 -1.000000 0.000000
vn 0.000000 -1.000000 0.000000
vn 0.000000 -1.000000 0.000000
vn -1.000000 0.000000 0.000000
vn -1.000000 0.000000 0.000000
vn -1.000000 0.000000 0.000000
vn -1.000000 0.000000 0.000000
vn 0.000000 0.000000 -1.000000
vn 0.000000 0.000000 -1.000000
vn 0.000000 0.000000 -1.000000
vn 0.000000 0.000000 -1.000000
vn 0.000000 1.000000 0.000000
vn 0.000000 1.000000 0.000000
vn 0.000000 1.000000 0.000000
vn 0.000000 1.000000 0.000000
vn 0.000000 0.000000 1.000000
vn 0.000000 0.000000 1.000000
vn 0.000000 0.000000 1.000000
vn 0.000000 0.000000 1.000000
vn 0.000000 -1.000000 0.000000
vn 0.000000 -1.000000 0.000000
vn 0.000000 -1.000000 0.000000
vn 0.000000 -1.000000 0.000000
vn -1.000000 0.000000 0.000000
vn -1.000000 0.000000 0.000000
vn -1.000000 0.000000 0.000000
vn -1.000000 0.000000 0.000000
s off
g Cheap_House
usemtl initialShadingGroup
f 51/75/139 52/76/140 54/77/141 53/216/142
f 53/78/143 54/77/144 56/79/145 55/215/146
f 55/80/147 56/79/148 58/81/149 57/214/150
f 52/76/151 58/81/152 56/79/153 54/77/154
f 59/82/155 60/83/156 62/84/157 61/213/158
f 61/85/159 62/84/160 64/86/161 63/212/162
f 63/87/163 64/86/164 66/88/165 65/211/166
f 60/83/167 66/88/168 64/86/169 62/84/170
f 67/89/171 68/90/172 78/91/173 75/92/174
f 69/93/175 70/94/176 82/95/177 79/96/178
f 76/97/179 77/178/180 74/99/181 73/100/182
f 68/90/183 81/102/184 82/218/185 78/91/186
f 79/172/187 80/101/188 67/89/189 75/92/190
f 79/96/191 75/174/192 69/93/193
f 71/103/194 72/104/195 77/98/196 76/177/197
f 78/171/198 82/95/199 70/94/200
f 75/176/201 78/175/202 70/94/203 69/93/204
f 76/177/205 79/173/206 71/103/207
f 73/100/208 80/101/209 79/172/210 76/97/211
f 82/170/212 81/217/213 74/99/214 77/178/215
f 82/169/216 77/98/217 72/104/218
f 79/96/219 82/95/220 72/104/221 71/103/222
f 83/105/223 84/106/224 86/107/225 85/209/226
f 85/108/227 86/107/228 88/109/229 87/208/230
f 87/110/231 88/109/232 90/111/233 89/207/234
f 89/112/235 90/111/236 84/106/237 83/210/238
f 84/106/239 90/111/240 88/109/241 86/107/242
f 91/113/243 92/114/244 94/115/245 93/205/246
f 93/116/247 94/115/248 96/117/249 95/204/250
f 95/118/251 96/117/252 98/119/253 97/203/254
f 97/120/255 98/119/256 92/114/257 91/206/258
f 92/114/259 98/119/260 96/117/261 94/115/262
f 99/121/263 100/122/264 102/123/265 101/201/266
f 101/124/267 102/123/268 104/125/269 103/200/270
f 103/126/271 104/125/272 106/127/273 105/199/274
f 105/128/275 106/127/276 100/122/277 99/202/278
f 100/122/279 106/127/280 104/125/281 102/123/282
f 107/129/283 108/130/284 110/131/285 109/197/286
f 109/132/287 110/131/288 112/133/289 111/196/290
f 111/134/291 112/133/292 114/135/293 113/195/294
f 113/136/295 114/135/296 108/130/297 107/198/298
f 108/130/299 114/135/300 112/133/301 110/131/302
f 115/137/303 116/138/304 118/139/305 117/193/306
f 117/140/307 118/139/308 120/141/309 119/192/310
f 119/142/311 120/141/312 122/143/313 121/191/314
f 121/144/315 122/143/316 116/138/317 115/194/318
f 116/138/319 122/143/320 120/141/321 118/139/322
f 123/145/323 124/146/324 126/147/325 125/189/326
f 125/148/327 126/147/328 128/149/329 127/188/330
f 127/150/331 128/149/332 130/151/333 129/187/334
f 129/152/335 130/151/336 124/146/337 123/190/338
f 124/146/339 130/151/340 128/149/341 126/147/342
f 131/153/343 132/154/344 134/155/345 133/185/346
f 133/156/347 134/155/348 136/157/349 135/184/350
f 135/158/351 136/157/352 138/159/353 137/183/354
f 137/160/355 138/159/356 132/154/357 131/186/358
f 132/154/359 138/159/360 136/157/361 134/155/362
f 139/161/363 140/162/364 142/163/365 141/181/366
f 141/164/367 142/163/368 144/165/369 143/180/370
f 143/166/371 144/165/372 146/167/373 145/179/374
f 145/168/375 146/167/376 140/162/377 139/182/378
f 140/162/379 146/167/380 144/165/381 142/163/382
