# This file uses meters as units for non-parametric coordinates.

mtllib Sewer_Clutter.mtl
g default
v 0.000004 0.318749 86.481255
v 53.368042 0.318749 86.481255
v 0.000004 0.000000 86.481255
v 53.368042 0.000000 86.481255
v 0.000004 0.000000 0.000002
v 53.368042 0.000000 0.000002
v 0.000004 0.318749 0.000002
v 53.368042 0.318749 0.000002
vt 0.038040 0.990175
vt 0.038040 0.990957
vt 0.037283 0.859360
vt 0.038065 0.859360
vt 0.250804 0.990215
vt 0.250023 0.990215
vt 0.250047 0.859399
vt 0.250048 0.858618
vt 0.250829 0.859399
vt 0.250023 0.990996
vt 0.038065 0.858578
vt 0.037259 0.990175
vn 0.000000 0.000000 1.000000
vn 0.000000 0.000000 1.000000
vn 0.000000 0.000000 1.000000
vn 0.000000 0.000000 1.000000
vn 0.000000 0.000000 -1.000000
vn 0.000000 0.000000 -1.000000
vn 0.000000 0.000000 -1.000000
vn 0.000000 0.000000 -1.000000
vn 0.000000 1.000000 0.000000
vn 0.000000 1.000000 0.000000
vn 0.000000 1.000000 0.000000
vn 0.000000 1.000000 0.000000
vn 1.000000 0.000000 0.000000
vn 1.000000 0.000000 0.000000
vn 1.000000 0.000000 0.000000
vn 1.000000 0.000000 0.000000
vn -1.000000 0.000000 0.000000
vn -1.000000 0.000000 0.000000
vn -1.000000 0.000000 0.000000
vn -1.000000 0.000000 0.000000
s off
g Grate
usemtl initialShadingGroup
f 1/1/1 3/12/2 4/3/3 2/4/4
f 5/5/5 7/6/6 8/7/7 6/9/8
f 7/6/9 1/1/10 2/4/11 8/7/12
f 2/4/13 4/11/14 6/8/15 8/7/16
f 7/6/17 5/10/18 3/2/19 1/1/20
g default
v -1.584384 0.000000 -2.744236
v -1.584388 0.000000 2.744236
v 3.168775 0.000000 0.000000
v -1.584384 15.974663 -2.744236
v -1.584388 15.974663 2.744236
v 3.168775 15.974663 0.000000
vt 0.119809 0.767161
vt 0.119807 0.780614
vt 0.080650 0.780611
vt 0.080647 0.807518
vt 0.119806 0.794068
vt 0.080648 0.794064
vt 0.131458 0.787342
vt 0.119805 0.807521
vt 0.068998 0.787336
vt 0.080651 0.767157
vn -1.000000 0.000000 -0.000001
vn -1.000000 0.000000 -0.000001
vn -1.000000 0.000000 -0.000001
vn -1.000000 0.000000 -0.000001
vn 0.499999 0.000000 0.866026
vn 0.499999 0.000000 0.866026
vn 0.499999 0.000000 0.866026
vn 0.499999 0.000000 0.866026
vn 0.500000 0.000000 -0.866026
vn 0.500000 0.000000 -0.866026
vn 0.500000 0.000000 -0.866026
vn 0.500000 0.000000 -0.866026
vn 0.000000 -1.000000 0.000000
vn 0.000000 -1.000000 0.000000
vn 0.000000 -1.000000 0.000000
vn 0.000000 1.000000 0.000000
vn 0.000000 1.000000 0.000000
vn 0.000000 1.000000 0.000000
s off
g Bottle
usemtl initialShadingGroup
f 9/13/21 10/14/22 13/15/23 12/22/24
f 10/14/25 11/17/26 14/18/27 13/15/28
f 11/17/29 9/20/30 12/16/31 14/18/32
f 10/14/33 9/19/34 11/17/35
f 14/18/36 12/21/37 13/15/38
g default
v 0.000000 0.000000 0.000000
v 0.000000 6.908699 0.000000
v 7.649864 1.036201 -7.649868
v 6.856789 0.000000 -6.856792
v 0.000000 1.036201 -10.818542
v 0.000000 0.000000 -9.696968
v -7.649864 1.036201 -7.649868
v -6.856789 0.000000 -6.856792
v -9.696968 0.000000 0.000000
v -10.818542 1.036201 0.000000
v -6.856789 0.000000 6.856792
v -7.649864 1.036201 7.649868
v 0.000000 1.036201 10.818542
v 0.000000 0.000000 9.696968
v 7.649864 1.036201 7.649868
v 6.856789 0.000000 6.856792
v 10.818542 1.036201 0.000000
v 9.696968 0.000000 0.000000
v 7.649864 5.872498 -7.649868
v 6.856789 6.908699 -6.856792
v 0.000000 5.872498 -10.818542
v 0.000000 6.908699 -9.696968
v -7.649864 5.872498 -7.649868
v -6.856789 6.908699 -6.856792
v -9.696968 6.908699 0.000000
v -10.818542 5.872498 0.000000
v -6.856789 6.908699 6.856792
v -7.649864 5.872498 7.649868
v 0.000000 5.872498 10.818542
v 0.000000 6.908699 9.696968
v 7.649864 5.872498 7.649868
v 6.856789 6.908699 6.856792
v 10.818542 5.872498 0.000000
v 9.696968 6.908699 0.000000
vt 0.425455 0.973647
vt 0.425453 0.990582
vt 0.353944 0.928378
vt 0.422705 0.976188
vt 0.277880 0.973630
vt 0.277878 0.990565
vt 0.329634 0.942954
vt 0.279481 0.942808
vt 0.341517 0.988033
vt 0.306912 0.951723
vt 0.318879 0.964693
vt 0.321220 0.988031
vt 0.361814 0.988035
vt 0.306937 0.934109
vt 0.336586 0.966087
vt 0.300924 0.988028
vt 0.280627 0.988025
vt 0.336592 0.919822
vt 0.402407 0.988040
vt 0.318921 0.921188
vt 0.382111 0.988037
vt 0.341519 0.976178
vt 0.256779 0.933976
vt 0.256765 0.951589
vt 0.361815 0.976180
vt 0.321222 0.976176
vt 0.268756 0.921048
vt 0.300925 0.976173
vt 0.286425 0.919673
vt 0.303782 0.928218
vt 0.402409 0.976185
vt 0.286445 0.965935
vt 0.382112 0.976182
vt 0.268739 0.964552
vt 0.300842 0.955014
vt 0.300848 0.930538
vt 0.351009 0.930695
vt 0.350990 0.955173
vt 0.449224 0.973650
vt 0.254110 0.973627
vt 0.254108 0.990562
vt 0.449223 0.990586
vt 0.267024 0.967935
vt 0.253217 0.952926
vt 0.287423 0.969598
vt 0.303806 0.957340
vt 0.287438 0.916041
vt 0.280629 0.976171
vt 0.267106 0.917638
vt 0.253260 0.932566
vt 0.303418 0.932698
vt 0.317273 0.917776
vt 0.337606 0.916191
vt 0.422704 0.988042
vt 0.353953 0.957500
vt 0.337561 0.969750
vt 0.317162 0.968076
vt 0.303364 0.953058
vn -0.707107 0.000000 -0.707107
vn -0.707107 0.000000 -0.707107
vn -0.707107 0.000000 -0.707107
vn -0.707107 0.000000 -0.707107
vn 0.000000 0.000000 1.000000
vn 0.000000 0.000000 1.000000
vn 0.000000 0.000000 1.000000
vn 0.000000 0.000000 1.000000
vn 0.270598 -0.707107 -0.653282
vn 0.270598 -0.707107 -0.653282
vn 0.270598 -0.707107 -0.653282
vn 0.270598 -0.707107 -0.653282
vn 0.653282 -0.707107 -0.270598
vn 0.653282 -0.707107 -0.270598
vn 0.653282 -0.707107 -0.270598
vn 0.653282 -0.707107 -0.270598
vn -0.270598 -0.707107 -0.653282
vn -0.270598 -0.707107 -0.653282
vn -0.270598 -0.707107 -0.653282
vn -0.270598 -0.707107 -0.653282
vn -0.653282 -0.707107 -0.270598
vn -0.653282 -0.707107 -0.270598
vn -0.653282 -0.707107 -0.270598
vn -0.653282 -0.707107 -0.270598
vn -0.270598 -0.707107 0.653282
vn -0.270598 -0.707107 0.653282
vn -0.270598 -0.707107 0.653282
vn -0.270598 -0.707107 0.653282
vn 0.270598 -0.707107 0.653282
vn 0.270598 -0.707107 0.653282
vn 0.270598 -0.707107 0.653282
vn 0.270598 -0.707107 0.653282
vn 0.653282 -0.707107 0.270598
vn 0.653282 -0.707107 0.270598
vn 0.653282 -0.707107 0.270598
vn 0.653282 -0.707107 0.270598
vn 0.653282 0.707107 -0.270598
vn 0.653282 0.707107 -0.270598
vn 0.653282 0.707107 -0.270598
vn 0.653282 0.707107 -0.270598
vn 0.270598 0.707107 -0.653282
vn 0.270598 0.707107 -0.653282
vn 0.270598 0.707107 -0.653282
vn 0.270598 0.707107 -0.653282
vn -0.270598 0.707107 -0.653282
vn -0.270598 0.707107 -0.653282
vn -0.270598 0.707107 -0.653282
vn -0.270598 0.707107 -0.653282
vn -0.653282 0.707107 -0.270598
vn -0.653282 0.707107 -0.270598
vn -0.653282 0.707107 -0.270598
vn -0.653282 0.707107 -0.270598
vn -0.270598 0.707107 0.653282
vn -0.270598 0.707107 0.653282
vn -0.270598 0.707107 0.653282
vn -0.270598 0.707107 0.653282
vn 0.270598 0.707107 0.653282
vn 0.270598 0.707107 0.653282
vn 0.270598 0.707107 0.653282
vn 0.270598 0.707107 0.653282
vn 0.653282 0.707107 0.270598
vn 0.653282 0.707107 0.270598
vn 0.653282 0.707107 0.270598
vn 0.653282 0.707107 0.270598
vn 0.382683 0.000000 -0.923880
vn 0.382683 0.000000 -0.923880
vn 0.382683 0.000000 -0.923880
vn 0.382683 0.000000 -0.923880
vn -0.382683 0.000000 -0.923880
vn -0.382683 0.000000 -0.923880
vn -0.382683 0.000000 -0.923880
vn -0.382683 0.000000 -0.923880
vn -0.923880 0.000000 -0.382683
vn -0.923880 0.000000 -0.382683
vn -0.923880 0.000000 -0.382683
vn -0.923880 0.000000 -0.382683
vn -0.382683 0.000000 0.923880
vn -0.382683 0.000000 0.923880
vn -0.382683 0.000000 0.923880
vn -0.382683 0.000000 0.923880
vn 0.382683 0.000000 0.923880
vn 0.382683 0.000000 0.923880
vn 0.382683 0.000000 0.923880
vn 0.382683 0.000000 0.923880
vn 0.923880 0.000000 0.382683
vn 0.923880 0.000000 0.382683
vn 0.923880 0.000000 0.382683
vn 0.923880 0.000000 0.382683
vn 0.923880 0.000000 -0.382683
vn 0.923880 0.000000 -0.382683
vn 0.923880 0.000000 -0.382683
vn 0.923880 0.000000 -0.382683
vn 0.000000 -1.000000 0.000000
vn 0.000000 -1.000000 0.000000
vn 0.000000 -1.000000 0.000000
vn 0.000000 -1.000000 0.000000
vn 0.000000 -1.000000 0.000000
vn 0.000000 -1.000000 0.000000
vn 0.000000 -1.000000 0.000000
vn 0.000000 -1.000000 0.000000
vn 0.000000 -1.000000 0.000000
vn 0.000000 1.000000 0.000000
vn 0.000000 1.000000 0.000000
vn 0.000000 1.000000 0.000000
vn 0.000000 1.000000 0.000000
vn 0.000000 1.000000 0.000000
vn 0.000000 1.000000 0.000000
vn 0.000000 1.000000 0.000000
vn 0.000000 1.000000 -0.000000
vn 0.000000 1.000000 0.000000
vn 0.000000 0.000000 1.000000
vn 0.000000 0.000000 1.000000
vn 0.000000 0.000000 1.000000
vn 0.000000 0.000000 1.000000
vn -0.707107 0.000000 -0.707107
vn -0.707107 0.000000 -0.707107
vn -0.707107 0.000000 -0.707107
vn -0.707107 0.000000 -0.707107
s off
g Cheese
usemtl initialShadingGroup
f 41/23/39 25/24/40 26/76/41 42/26/42
f 39/27/43 23/28/44 15/63/45 16/62/46
f 17/80/47 18/32/48 20/33/49 19/79/50
f 18/32/51 17/80/52 31/73/53 32/36/54
f 19/79/55 20/33/56 22/37/57 21/78/58
f 21/78/59 22/37/60 23/60/61 24/77/62
f 26/25/63 25/59/64 28/40/65 27/75/66
f 27/75/67 28/40/68 30/42/69 29/74/70
f 29/74/71 30/42/72 32/36/73 31/73/74
f 33/72/75 34/45/76 48/46/77 47/66/78
f 34/45/79 33/72/80 35/71/81 36/49/82
f 36/49/83 35/71/84 37/69/85 38/51/86
f 38/51/87 37/69/88 40/52/89 39/58/90
f 41/57/91 42/68/92 43/67/93 44/54/94
f 44/54/95 43/67/96 45/65/97 46/56/98
f 46/56/99 45/65/100 47/66/101 48/46/102
f 17/31/103 19/34/104 35/48/105 33/44/106
f 19/34/107 21/38/108 37/50/109 35/48/110
f 21/38/111 24/39/112 40/70/113 37/50/114
f 26/76/115 27/41/116 43/53/117 42/26/118
f 27/41/119 29/43/120 45/55/121 43/53/122
f 29/43/123 31/35/124 47/47/125 45/55/126
f 31/35/127 17/31/128 33/44/129 47/47/130
s 1
f 20/33/131 18/32/132 15/29/133
f 22/37/134 20/33/131 15/29/133
f 23/60/135 22/37/134 15/29/133
f 28/40/136 25/59/137 15/29/133
f 30/42/138 28/40/136 15/29/133
f 32/36/139 30/42/138 15/29/133
f 18/32/132 32/36/139 15/29/133
s 3
f 34/45/140 36/49/141 16/30/142
f 36/49/141 38/51/143 16/30/142
f 38/51/143 39/58/144 16/30/142
f 41/57/145 44/54/146 16/30/142
f 44/54/146 46/56/147 16/30/142
f 46/56/147 48/46/148 16/30/142
f 48/46/148 34/45/140 16/30/142
s off
f 24/39/149 23/28/150 39/27/151 40/70/152
f 15/64/153 25/24/154 41/23/155 16/61/156
g default
v 18.772339 0.000000 -18.772339
v 0.000000 0.000000 -26.548080
v -18.772343 0.000000 -18.772339
v -26.548084 0.000000 0.000000
v -18.772343 0.000000 18.772339
v 0.000000 0.000000 26.548096
v 18.772339 0.000000 18.772339
v 26.548100 0.000000 0.000000
v 18.772339 84.648468 -18.772339
v 0.000000 84.648468 -26.548080
v -18.772343 84.648468 -18.772339
v -26.548084 84.648468 0.000000
v -18.772343 84.648468 18.772339
v 0.000000 84.648468 26.548096
v 18.772339 84.648468 18.772339
v 26.548100 84.648468 0.000000
v 17.315643 84.648468 -17.315643
v 0.000000 84.648468 -24.488022
v -17.315639 84.648468 -17.315643
v -24.488026 84.648468 0.000000
v -17.315639 84.648468 17.315643
v 0.000000 84.648468 24.488022
v 17.315643 84.648468 17.315659
v 24.488022 84.648468 0.000000
v 0.000000 0.000000 0.000000
v 17.315643 2.344574 -17.315643
v 0.000000 2.344574 -24.488022
v 0.000000 2.344574 0.000000
v -17.315639 2.344574 -17.315643
v -24.488026 2.344574 0.000000
v -17.315639 2.344574 17.315643
v 0.000000 2.344574 24.488022
v 17.315643 2.344574 17.315659
v 24.488022 2.344574 0.000000
v 19.927406 63.486351 -19.927414
v 28.181606 63.486351 0.000000
v 19.927406 63.486351 19.927414
v -0.000001 63.486351 28.181610
v -19.927410 63.486351 19.927414
v -28.181591 63.486351 0.000000
v -19.927410 63.486351 -19.927414
v -0.000001 63.486351 -28.181595
v 18.772339 65.602562 -18.772339
v 26.548096 65.602562 0.000000
v 18.772339 65.602562 18.772339
v 0.000000 65.602562 26.548103
v -18.772343 65.602562 18.772339
v -26.548084 65.602562 0.000000
v -18.772343 65.602562 -18.772339
v 0.000000 65.602562 -26.548080
v 18.772339 61.370140 -18.772339
v 26.548100 61.370140 0.000000
v 18.772339 61.370140 18.772339
v 0.000000 61.370140 26.548096
v -18.772343 61.370140 18.772339
v -26.548084 61.370140 0.000000
v -18.772343 61.370140 -18.772339
v 0.000000 61.370140 -26.548080
v 19.927406 21.162117 -19.927414
v 28.181606 21.162117 0.000000
v 19.927406 21.162117 19.927414
v -0.000001 21.162117 28.181610
v -19.927410 21.162117 19.927414
v -28.181591 21.162117 0.000000
v -19.927410 21.162117 -19.927414
v -0.000001 21.162117 -28.181595
v 18.772339 23.278328 -18.772339
v 26.548096 23.278328 0.000000
v 18.772339 23.278328 18.772339
v 0.000000 23.278328 26.548103
v -18.772343 23.278328 18.772339
v -26.548084 23.278328 0.000000
v -18.772343 23.278328 -18.772339
v 0.000000 23.278328 -26.548080
v 18.772339 19.045906 -18.772339
v 26.548100 19.045906 0.000000
v 18.772339 19.045906 18.772339
v 0.000000 19.045906 26.548096
v -18.772343 19.045906 18.772339
v -26.548084 19.045906 0.000000
v -18.772343 19.045906 -18.772339
v 0.000000 19.045906 -26.548080
vt 0.455259 0.639425
vt 0.455415 0.689194
vt 0.454966 0.988079
vt 0.455357 0.938243
vt 0.455447 0.888431
vt 0.455482 0.838597
vt 0.455484 0.788771
vt 0.455469 0.738967
vt 0.502078 0.639240
vt 0.502178 0.689093
vt 0.501688 0.589323
vt 0.502195 0.938633
vt 0.502211 0.888681
vt 0.502240 0.838770
vt 0.502247 0.788871
vt 0.502234 0.738980
vt 0.667823 0.689137
vt 0.667912 0.639326
vt 0.671912 0.667333
vt 0.671952 0.713274
vt 0.668304 0.589489
vt 0.672196 0.988920
vt 0.668011 0.938142
vt 0.672155 0.942979
vt 0.667855 0.888373
vt 0.672115 0.897038
vt 0.667801 0.838601
vt 0.672074 0.851097
vt 0.667786 0.788796
vt 0.672034 0.805156
vt 0.667787 0.738971
vt 0.671993 0.759215
vt 0.135066 0.652534
vt 0.368106 0.817928
vt 0.873654 0.667155
vt 0.391087 0.873379
vt 0.873939 0.988741
vt 0.873898 0.942801
vt 0.873857 0.896859
vt 0.873817 0.850919
vt 0.873776 0.804978
vt 0.873735 0.759036
vt 0.614695 0.738734
vt 0.614722 0.688816
vt 0.621058 0.688887
vt 0.621029 0.738797
vt 0.614689 0.788640
vt 0.621023 0.788697
vt 0.614700 0.838539
vt 0.621035 0.838588
vt 0.614754 0.888435
vt 0.621091 0.888475
vt 0.614854 0.938322
vt 0.621191 0.938328
vt 0.614892 0.587400
vt 0.621321 0.588985
vt 0.614775 0.638876
vt 0.621075 0.638935
vt 0.608362 0.738670
vt 0.608385 0.688747
vt 0.608356 0.788584
vt 0.608367 0.838490
vt 0.608420 0.888393
vt 0.608571 0.938305
vt 0.608359 0.588940
vt 0.608423 0.638824
vt 0.508569 0.739029
vt 0.508515 0.689132
vt 0.514850 0.689174
vt 0.514902 0.739077
vt 0.508581 0.788927
vt 0.514914 0.788984
vt 0.508574 0.838834
vt 0.514908 0.838897
vt 0.508547 0.888752
vt 0.514884 0.888821
vt 0.508495 0.938692
vt 0.514847 0.938743
vt 0.508168 0.587741
vt 0.514567 0.589285
vt 0.508416 0.639246
vt 0.514698 0.639262
vt 0.501949 0.988583
vt 0.508378 0.990168
vt 0.514911 0.988628
vt 0.608703 0.988283
vt 0.615102 0.989827
vt 0.621582 0.988245
vt 0.159608 0.761550
vt 0.668323 0.987876
vt 0.335627 0.850420
vt 0.873695 0.713096
vt 0.335636 0.896361
vt 0.368127 0.928840
vt 0.414068 0.928831
vt 0.446547 0.896340
vt 0.873613 0.621213
vt 0.446539 0.850399
vt 0.414047 0.817919
vt 0.154951 0.763501
vt 0.671871 0.621392
vt 0.110157 0.592416
vt 0.454947 0.589691
vt 0.044038 0.763956
vt 0.076390 0.731338
vt 0.044227 0.809898
vt 0.076845 0.842250
vt 0.122787 0.842062
vt 0.155139 0.809443
vt 0.122332 0.731149
vt 0.039365 0.762043
vt 0.074439 0.726680
vt 0.039569 0.811850
vt 0.074932 0.846923
vt 0.124739 0.846719
vt 0.159812 0.811356
vt 0.124245 0.726476
vt 0.195190 0.677431
vt 0.195185 0.627624
vt 0.159976 0.712653
vt 0.110170 0.712658
vt 0.074948 0.677444
vt 0.074942 0.627638
vt 0.159963 0.592410
vn 0.000000 -1.000000 0.000000
vn 0.000000 -1.000000 0.000000
vn 0.000000 -1.000000 0.000000
vn 0.000000 -1.000000 0.000000
vn 0.000000 -1.000000 0.000000
vn 0.000000 -1.000000 0.000000
vn 0.000000 -1.000000 0.000000
vn 0.000000 -1.000000 0.000000
vn 0.000000 -1.000000 0.000000
vn 0.382683 0.000000 -0.923880
vn 0.382683 0.000000 -0.923880
vn 0.382683 0.000000 -0.923880
vn 0.382683 0.000000 -0.923880
vn -0.382683 0.000000 -0.923880
vn -0.382683 0.000000 -0.923880
vn -0.382683 0.000000 -0.923880
vn -0.382683 0.000000 -0.923880
vn -0.923880 0.000000 -0.382683
vn -0.923880 0.000000 -0.382683
vn -0.923880 0.000000 -0.382683
vn -0.923880 0.000000 -0.382683
vn -0.923880 0.000000 0.382683
vn -0.923880 0.000000 0.382683
vn -0.923880 0.000000 0.382683
vn -0.923880 0.000000 0.382683
vn -0.382683 0.000000 0.923880
vn -0.382683 0.000000 0.923880
vn -0.382683 0.000000 0.923880
vn -0.382683 0.000000 0.923880
vn 0.382683 0.000000 0.923880
vn 0.382683 0.000000 0.923880
vn 0.382683 0.000000 0.923880
vn 0.382683 0.000000 0.923880
vn 0.923880 0.000000 0.382684
vn 0.923880 0.000000 0.382684
vn 0.923880 0.000000 0.382684
vn 0.923880 0.000000 0.382684
vn 0.923880 0.000000 -0.382684
vn 0.923880 0.000000 -0.382684
vn 0.923880 0.000000 -0.382684
vn 0.923880 0.000000 -0.382684
vn 0.000000 1.000000 -0.000000
vn 0.000000 1.000000 -0.000001
vn 0.000000 1.000000 -0.000001
vn 0.000000 1.000000 -0.000000
vn 0.000000 1.000000 -0.000001
vn 0.000000 1.000000 -0.000001
vn 0.000000 1.000000 0.000000
vn 0.000000 1.000000 0.000000
vn 0.000000 1.000000 0.000000
vn 0.000000 1.000000 0.000000
vn 0.000000 1.000000 -0.000001
vn 0.000000 1.000000 -0.000001
vn 0.000000 1.000000 -0.000000
vn 0.000000 1.000000 -0.000000
vn 0.000000 1.000000 0.000000
vn 0.000000 1.000000 0.000000
vn 0.000000 1.000000 0.000000
vn 0.000000 1.000000 0.000000
vn 0.000000 1.000000 0.000000
vn 0.000000 1.000000 0.000000
vn 0.000000 1.000000 0.000000
vn 0.000000 1.000000 0.000000
vn 0.000000 1.000000 0.000000
vn 0.000000 1.000000 0.000000
vn 0.000000 1.000000 0.000000
vn -0.382684 0.000000 0.923880
vn -0.382684 0.000000 0.923880
vn -0.382684 0.000000 0.923880
vn -0.382684 0.000000 0.923880
vn 0.382684 0.000000 0.923880
vn 0.382684 0.000000 0.923880
vn 0.382684 0.000000 0.923880
vn 0.382684 0.000000 0.923880
vn 0.923879 0.000000 0.382684
vn 0.923879 0.000000 0.382684
vn 0.923879 0.000000 0.382684
vn 0.923879 0.000000 0.382684
vn 0.923879 0.000000 -0.382684
vn 0.923879 0.000000 -0.382684
vn 0.923879 0.000000 -0.382684
vn 0.923879 0.000000 -0.382684
vn 0.382684 0.000000 -0.923880
vn 0.382684 0.000000 -0.923880
vn 0.382684 0.000000 -0.923880
vn 0.382684 0.000000 -0.923880
vn -0.382683 0.000000 -0.923880
vn -0.382683 0.000000 -0.923880
vn -0.382683 0.000000 -0.923880
vn -0.382683 0.000000 -0.923880
vn -0.923880 0.000000 -0.382683
vn -0.923880 0.000000 -0.382683
vn -0.923880 0.000000 -0.382683
vn -0.923880 0.000000 -0.382683
vn -0.923880 0.000000 0.382684
vn -0.923880 0.000000 0.382684
vn -0.923880 0.000000 0.382684
vn -0.923880 0.000000 0.382684
vn 0.752197 0.580624 -0.311569
vn 0.752197 0.580624 -0.311569
vn 0.752197 0.580624 -0.311569
vn 0.752197 0.580624 -0.311569
vn 0.752197 0.580624 0.311569
vn 0.752197 0.580624 0.311569
vn 0.752197 0.580624 0.311569
vn 0.752197 0.580624 0.311569
vn 0.311569 0.580623 0.752198
vn 0.311569 0.580623 0.752198
vn 0.311569 0.580623 0.752198
vn 0.311569 0.580623 0.752198
vn -0.311570 0.580625 0.752196
vn -0.311570 0.580625 0.752196
vn -0.311570 0.580625 0.752196
vn -0.311570 0.580625 0.752196
vn -0.752197 0.580624 0.311569
vn -0.752197 0.580624 0.311569
vn -0.752197 0.580624 0.311569
vn -0.752197 0.580624 0.311569
vn -0.752197 0.580624 -0.311570
vn -0.752197 0.580624 -0.311570
vn -0.752197 0.580624 -0.311570
vn -0.752197 0.580624 -0.311570
vn -0.311569 0.580625 -0.752196
vn -0.311569 0.580625 -0.752196
vn -0.311569 0.580625 -0.752196
vn -0.311569 0.580625 -0.752196
vn 0.311568 0.580624 -0.752198
vn 0.311568 0.580624 -0.752198
vn 0.311568 0.580624 -0.752198
vn 0.311568 0.580624 -0.752198
vn 0.923880 -0.000000 -0.382684
vn 0.923880 -0.000000 -0.382684
vn 0.923880 -0.000000 -0.382684
vn 0.923880 -0.000000 -0.382684
vn 0.923880 -0.000000 0.382684
vn 0.923880 -0.000000 0.382684
vn 0.923880 -0.000000 0.382684
vn 0.923880 -0.000000 0.382684
vn 0.382684 0.000000 0.923880
vn 0.382684 0.000000 0.923880
vn 0.382684 0.000000 0.923880
vn 0.382684 0.000000 0.923880
vn -0.382684 0.000000 0.923880
vn -0.382684 0.000000 0.923880
vn -0.382684 0.000000 0.923880
vn -0.382684 0.000000 0.923880
vn -0.923880 0.000000 0.382683
vn -0.923880 0.000000 0.382683
vn -0.923880 0.000000 0.382683
vn -0.923880 0.000000 0.382683
vn -0.923880 0.000000 -0.382683
vn -0.923880 0.000000 -0.382683
vn -0.923880 0.000000 -0.382683
vn -0.923880 0.000000 -0.382683
vn -0.382683 0.000000 -0.923880
vn -0.382683 0.000000 -0.923880
vn -0.382683 0.000000 -0.923880
vn -0.382683 0.000000 -0.923880
vn 0.382683 0.000000 -0.923880
vn 0.382683 0.000000 -0.923880
vn 0.382683 0.000000 -0.923880
vn 0.382683 0.000000 -0.923880
vn 0.752197 -0.580624 -0.311570
vn 0.752197 -0.580624 -0.311570
vn 0.752197 -0.580624 -0.311570
vn 0.752197 -0.580624 -0.311570
vn 0.752197 -0.580624 0.311570
vn 0.752197 -0.580624 0.311570
vn 0.752197 -0.580624 0.311570
vn 0.752197 -0.580624 0.311570
vn 0.311570 -0.580626 0.752195
vn 0.311570 -0.580626 0.752195
vn 0.311570 -0.580626 0.752195
vn 0.311570 -0.580626 0.752195
vn -0.311570 -0.580625 0.752196
vn -0.311570 -0.580625 0.752196
vn -0.311570 -0.580625 0.752196
vn -0.311570 -0.580625 0.752196
vn -0.752197 -0.580624 0.311569
vn -0.752197 -0.580624 0.311569
vn -0.752197 -0.580624 0.311569
vn -0.752197 -0.580624 0.311569
vn -0.752197 -0.580624 -0.311570
vn -0.752197 -0.580624 -0.311570
vn -0.752197 -0.580624 -0.311570
vn -0.752197 -0.580624 -0.311570
vn -0.311569 -0.580625 -0.752196
vn -0.311569 -0.580625 -0.752196
vn -0.311569 -0.580625 -0.752196
vn -0.311569 -0.580625 -0.752196
vn 0.311569 -0.580625 -0.752196
vn 0.311569 -0.580625 -0.752196
vn 0.311569 -0.580625 -0.752196
vn 0.311569 -0.580625 -0.752196
vn 0.752197 0.580624 -0.311570
vn 0.752197 0.580624 -0.311570
vn 0.752197 0.580624 -0.311570
vn 0.752197 0.580624 -0.311570
vn 0.752197 0.580624 0.311570
vn 0.752197 0.580624 0.311570
vn 0.752197 0.580624 0.311570
vn 0.752197 0.580624 0.311570
vn 0.311570 0.580624 0.752197
vn 0.311570 0.580624 0.752197
vn 0.311570 0.580624 0.752197
vn 0.311570 0.580624 0.752197
vn -0.311570 0.580624 0.752196
vn -0.311570 0.580624 0.752196
vn -0.311570 0.580624 0.752196
vn -0.311570 0.580624 0.752196
vn -0.752197 0.580624 0.311569
vn -0.752197 0.580624 0.311569
vn -0.752197 0.580624 0.311569
vn -0.752197 0.580624 0.311569
vn -0.752197 0.580624 -0.311569
vn -0.752197 0.580624 -0.311569
vn -0.752197 0.580624 -0.311569
vn -0.752197 0.580624 -0.311569
vn -0.311569 0.580625 -0.752196
vn -0.311569 0.580625 -0.752196
vn -0.311569 0.580625 -0.752196
vn -0.311569 0.580625 -0.752196
vn 0.311569 0.580625 -0.752196
vn 0.311569 0.580625 -0.752196
vn 0.311569 0.580625 -0.752196
vn 0.311569 0.580625 -0.752196
vn 0.923880 -0.000000 -0.382684
vn 0.923880 -0.000000 -0.382684
vn 0.923880 -0.000000 -0.382684
vn 0.923880 -0.000000 -0.382684
vn 0.923880 -0.000000 0.382684
vn 0.923880 -0.000000 0.382684
vn 0.923880 -0.000000 0.382684
vn 0.923880 -0.000000 0.382684
vn 0.382684 0.000000 0.923880
vn 0.382684 0.000000 0.923880
vn 0.382684 0.000000 0.923880
vn 0.382684 0.000000 0.923880
vn -0.382684 0.000000 0.923880
vn -0.382684 0.000000 0.923880
vn -0.382684 0.000000 0.923880
vn -0.382684 0.000000 0.923880
vn -0.923880 0.000000 0.382683
vn -0.923880 0.000000 0.382683
vn -0.923880 0.000000 0.382683
vn -0.923880 0.000000 0.382683
vn -0.923880 0.000000 -0.382683
vn -0.923880 0.000000 -0.382683
vn -0.923880 0.000000 -0.382683
vn -0.923880 0.000000 -0.382683
vn -0.382683 0.000000 -0.923880
vn -0.382683 0.000000 -0.923880
vn -0.382683 0.000000 -0.923880
vn -0.382683 0.000000 -0.923880
vn 0.382683 0.000000 -0.923880
vn 0.382683 0.000000 -0.923880
vn 0.382683 0.000000 -0.923880
vn 0.382683 0.000000 -0.923880
vn 0.752197 -0.580624 -0.311570
vn 0.752197 -0.580624 -0.311570
vn 0.752197 -0.580624 -0.311570
vn 0.752197 -0.580624 -0.311570
vn 0.752197 -0.580624 0.311570
vn 0.752197 -0.580624 0.311570
vn 0.752197 -0.580624 0.311570
vn 0.752197 -0.580624 0.311570
vn 0.311570 -0.580625 0.752196
vn 0.311570 -0.580625 0.752196
vn 0.311570 -0.580625 0.752196
vn 0.311570 -0.580625 0.752196
vn -0.311570 -0.580625 0.752196
vn -0.311570 -0.580625 0.752196
vn -0.311570 -0.580625 0.752196
vn -0.311570 -0.580625 0.752196
vn -0.752197 -0.580624 0.311570
vn -0.752197 -0.580624 0.311570
vn -0.752197 -0.580624 0.311570
vn -0.752197 -0.580624 0.311570
vn -0.752197 -0.580624 -0.311570
vn -0.752197 -0.580624 -0.311570
vn -0.752197 -0.580624 -0.311570
vn -0.752197 -0.580624 -0.311570
vn -0.311569 -0.580625 -0.752196
vn -0.311569 -0.580625 -0.752196
vn -0.311569 -0.580625 -0.752196
vn -0.311569 -0.580625 -0.752196
vn 0.311569 -0.580625 -0.752196
vn 0.311569 -0.580625 -0.752196
vn 0.311569 -0.580625 -0.752196
vn 0.311569 -0.580625 -0.752196
s 1
g Barrel
usemtl initialShadingGroup
f 50/204/157 49/199/158 73/113/159
f 51/182/160 50/204/157 73/113/159
f 52/203/161 51/182/160 73/113/159
f 53/202/162 52/203/161 73/113/159
f 54/201/163 53/202/162 73/113/159
f 55/200/164 54/201/163 73/113/159
f 56/198/165 55/200/164 73/113/159
f 49/199/158 56/198/165 73/113/159
s off
f 49/82/166 50/81/167 130/89/168 123/90/169
f 50/81/170 51/183/171 129/91/172 130/89/173
f 51/83/174 52/84/175 128/92/176 129/163/177
f 52/84/178 53/85/179 127/93/180 128/92/181
f 53/85/182 54/86/183 126/94/184 127/93/185
f 54/86/186 55/87/187 125/95/188 126/94/189
f 55/87/190 56/88/191 124/96/192 125/95/193
f 56/88/194 49/82/195 123/90/196 124/96/197
s 2
f 57/192/198 58/197/199 66/190/200 65/185/201
f 58/197/199 59/169/202 67/180/203 66/190/200
f 59/169/202 60/196/204 68/189/205 67/180/203
f 60/196/204 61/195/206 69/188/207 68/189/205
f 61/195/206 62/194/208 70/187/209 69/188/207
f 62/194/208 63/193/210 71/186/211 70/187/209
f 63/193/210 64/191/212 72/184/213 71/186/211
f 64/191/212 57/192/198 65/185/201 72/184/213
s 3
f 74/114/214 75/179/215 76/116/216
f 75/179/215 77/178/217 76/116/216
f 77/178/217 78/176/218 76/116/216
f 78/176/218 79/175/219 76/116/216
f 79/175/219 80/174/220 76/116/216
f 80/174/220 81/173/221 76/116/216
f 81/173/221 82/171/222 76/116/216
f 82/171/222 74/114/214 76/116/216
s off
f 65/100/223 66/99/224 75/115/225 74/172/226
f 66/99/227 67/181/228 77/177/229 75/115/230
f 67/102/231 68/104/232 78/118/233 77/117/234
f 68/104/235 69/106/236 79/119/237 78/118/238
f 69/106/239 70/108/240 80/120/241 79/119/242
f 70/108/243 71/110/244 81/121/245 80/120/246
f 71/110/247 72/112/248 82/122/249 81/121/250
f 72/112/251 65/100/252 74/172/253 82/122/254
f 84/123/255 83/124/256 91/125/257 92/126/258
f 85/127/259 84/123/260 92/126/261 93/128/262
f 86/129/263 85/127/264 93/128/265 94/130/266
f 87/131/267 86/129/268 94/130/269 95/132/270
f 88/133/271 87/131/272 95/132/273 96/134/274
f 89/167/275 88/133/276 96/134/277 97/168/278
f 90/137/279 89/135/280 97/136/281 98/138/282
f 83/124/283 90/137/284 98/138/285 91/125/286
f 92/126/287 91/125/288 57/97/289 64/111/290
f 93/128/291 92/126/292 64/111/293 63/109/294
f 94/130/295 93/128/296 63/109/297 62/107/298
f 95/132/299 94/130/300 62/107/301 61/105/302
f 96/134/303 95/132/304 61/105/305 60/103/306
f 97/168/307 96/134/308 60/103/309 59/170/310
f 98/138/311 97/136/312 59/101/313 58/98/314
f 91/125/315 98/138/316 58/98/317 57/97/318
f 100/139/319 99/140/320 83/124/321 84/123/322
f 101/141/323 100/139/324 84/123/325 85/127/326
f 102/142/327 101/141/328 85/127/329 86/129/330
f 103/143/331 102/142/332 86/129/333 87/131/334
f 104/144/335 103/143/336 87/131/337 88/133/338
f 105/166/339 104/144/340 88/133/341 89/167/342
f 106/146/343 105/145/344 89/135/345 90/137/346
f 99/140/347 106/146/348 90/137/349 83/124/350
f 108/147/351 107/148/352 115/149/353 116/150/354
f 109/151/355 108/147/356 116/150/357 117/152/358
f 110/153/359 109/151/360 117/152/361 118/154/362
f 111/155/363 110/153/364 118/154/365 119/156/366
f 112/157/367 111/155/368 119/156/369 120/158/370
f 113/164/371 112/157/372 120/158/373 121/165/374
f 114/161/375 113/159/376 121/160/377 122/162/378
f 107/148/379 114/161/380 122/162/381 115/149/382
f 100/139/383 116/150/384 115/149/385 99/140/386
f 101/141/387 117/152/388 116/150/389 100/139/390
f 102/142/391 118/154/392 117/152/393 101/141/394
f 103/143/395 119/156/396 118/154/397 102/142/398
f 104/144/399 120/158/400 119/156/401 103/143/402
f 105/166/403 121/165/404 120/158/405 104/144/406
f 106/146/407 122/162/408 121/160/409 105/145/410
f 99/140/411 115/149/412 122/162/413 106/146/414
f 124/96/415 123/90/416 107/148/417 108/147/418
f 125/95/419 124/96/420 108/147/421 109/151/422
f 126/94/423 125/95/424 109/151/425 110/153/426
f 127/93/427 126/94/428 110/153/429 111/155/430
f 128/92/431 127/93/432 111/155/433 112/157/434
f 129/163/435 128/92/436 112/157/437 113/164/438
f 130/89/439 129/91/440 113/159/441 114/161/442
f 123/90/443 130/89/444 114/161/445 107/148/446
g default
v -45.732979 0.000004 -0.000008
v 0.000000 0.000004 -0.000008
v -45.732979 112.513046 -0.000008
v 0.000000 112.513046 -0.000008
v -45.732979 112.513046 -45.142586
v 0.000000 112.513046 -45.142586
v -45.732979 0.000004 -45.142586
v 0.000000 0.000004 -45.142586
vt 0.428543 0.231757
vt 0.540643 0.231755
vt 0.816434 0.231751
vt 0.152752 0.231761
vt 0.816432 0.121098
vt 0.152750 0.121108
vt 0.540641 0.121102
vt 0.428541 0.121104
vt 0.040650 0.121110
vt 0.152749 0.009008
vt 0.428539 0.009004
vt 0.152754 0.343861
vt 0.040652 0.231763
vt 0.428545 0.343857
vn 0.000000 0.000000 1.000000
vn 0.000000 0.000000 1.000000
vn 0.000000 0.000000 1.000000
vn 0.000000 0.000000 1.000000
vn 0.000000 1.000000 0.000000
vn 0.000000 1.000000 0.000000
vn 0.000000 1.000000 0.000000
vn 0.000000 1.000000 0.000000
vn 0.000000 0.000000 -1.000000
vn 0.000000 0.000000 -1.000000
vn 0.000000 0.000000 -1.000000
vn 0.000000 0.000000 -1.000000
vn 0.000000 -1.000000 0.000000
vn 0.000000 -1.000000 0.000000
vn 0.000000 -1.000000 0.000000
vn 0.000000 -1.000000 0.000000
vn 1.000000 0.000000 0.000000
vn 1.000000 0.000000 0.000000
vn 1.000000 0.000000 0.000000
vn 1.000000 0.000000 0.000000
vn -1.000000 0.000000 0.000000
vn -1.000000 0.000000 0.000000
vn -1.000000 0.000000 0.000000
vn -1.000000 0.000000 0.000000
s off
g Box3
usemtl initialShadingGroup
f 131/205/447 132/218/448 134/216/449 133/208/450
f 133/208/451 134/217/452 136/213/453 135/210/454
f 135/210/455 136/214/456 138/215/457 137/212/458
f 137/212/459 138/211/460 132/206/461 131/205/462
f 132/206/463 138/211/464 136/209/465 134/207/466
f 137/212/467 131/205/468 133/208/469 135/210/470
g default
v -67.399460 0.000000 -0.000004
v 0.000000 0.000000 -0.000004
v -67.399460 24.953953 -0.000004
v 0.000000 24.953953 -0.000004
v -67.399460 24.953953 -100.426048
v 0.000000 24.953953 -100.426048
v -67.399460 0.000000 -100.426048
v 0.000000 0.000000 -100.426048
vt 0.203429 0.808070
vt 0.203395 0.520527
vt 0.203403 0.581693
vt 0.203422 0.746903
vt 0.449566 0.581665
vt 0.614775 0.581645
vt 0.449559 0.520497
vt 0.449540 0.355289
vt 0.614768 0.520478
vt 0.449593 0.808041
vt 0.038187 0.520545
vt 0.203376 0.355317
vt 0.449586 0.746874
vt 0.038194 0.581713
vn 0.000000 0.000000 1.000000
vn 0.000000 0.000000 1.000000
vn 0.000000 0.000000 1.000000
vn 0.000000 0.000000 1.000000
vn 0.000000 1.000000 0.000000
vn 0.000000 1.000000 0.000000
vn 0.000000 1.000000 0.000000
vn 0.000000 1.000000 0.000000
vn 0.000000 0.000000 -1.000000
vn 0.000000 0.000000 -1.000000
vn 0.000000 0.000000 -1.000000
vn 0.000000 0.000000 -1.000000
vn 0.000000 -1.000000 0.000000
vn 0.000000 -1.000000 0.000000
vn 0.000000 -1.000000 0.000000
vn 0.000000 -1.000000 0.000000
vn 1.000000 0.000000 0.000000
vn 1.000000 0.000000 0.000000
vn 1.000000 0.000000 0.000000
vn 1.000000 0.000000 0.000000
vn -1.000000 0.000000 0.000000
vn -1.000000 0.000000 0.000000
vn -1.000000 0.000000 0.000000
vn -1.000000 0.000000 0.000000
s off
g Box2
usemtl initialShadingGroup
f 139/229/471 140/220/472 142/221/473 141/232/474
f 141/222/475 142/221/476 144/223/477 143/231/478
f 143/224/479 144/223/480 146/225/481 145/227/482
f 145/226/483 146/225/484 140/220/485 139/230/486
f 140/220/487 146/225/488 144/223/489 142/221/490
f 145/228/491 139/219/492 141/222/493 143/231/494
g default
v -51.964005 0.000004 0.000000
v 0.000000 0.000004 0.000000
v -51.964005 51.964005 0.000000
v 0.000000 51.964005 0.000000
v -51.964005 51.964005 -51.964005
v 0.000000 51.964005 -51.964005
v -51.964005 0.000004 -51.964005
v 0.000000 0.000004 -51.964005
vt 0.453232 0.363173
vt 0.835354 0.363133
vt 0.707980 0.363147
vt 0.580606 0.363160
vt 0.707993 0.490520
vt 0.708006 0.617895
vt 0.835367 0.490507
vt 0.962741 0.490494
vt 0.835380 0.617881
vt 0.453246 0.490547
vt 0.835341 0.235759
vt 0.962728 0.363120
vt 0.580619 0.490534
vt 0.707967 0.235773
vn 0.000000 0.000000 1.000000
vn 0.000000 0.000000 1.000000
vn 0.000000 0.000000 1.000000
vn 0.000000 0.000000 1.000000
vn 0.000000 1.000000 0.000000
vn 0.000000 1.000000 0.000000
vn 0.000000 1.000000 0.000000
vn 0.000000 1.000000 0.000000
vn 0.000000 0.000000 -1.000000
vn 0.000000 0.000000 -1.000000
vn 0.000000 0.000000 -1.000000
vn 0.000000 0.000000 -1.000000
vn 0.000000 -1.000000 0.000000
vn 0.000000 -1.000000 0.000000
vn 0.000000 -1.000000 0.000000
vn 0.000000 -1.000000 0.000000
vn 1.000000 0.000000 0.000000
vn 1.000000 0.000000 0.000000
vn 1.000000 0.000000 0.000000
vn 1.000000 0.000000 0.000000
vn -1.000000 0.000000 0.000000
vn -1.000000 0.000000 0.000000
vn -1.000000 0.000000 0.000000
vn -1.000000 0.000000 0.000000
s off
g Box1
usemtl initialShadingGroup
f 147/243/495 148/234/496 150/235/497 149/246/498
f 149/236/499 150/235/500 152/237/501 151/245/502
f 151/238/503 152/237/504 154/239/505 153/241/506
f 153/240/507 154/239/508 148/234/509 147/244/510
f 148/234/511 154/239/512 152/237/513 150/235/514
f 153/242/515 147/233/516 149/236/517 151/245/518
